<?xml version="1.0" encoding="UTF-8" standalone="no"?>
<svg
   viewBox="0 0 1080.1889 1136.8821"
   width="1080.189"
   height="1136.8821"
   version="1.1"
   id="svg66"
   sodipodi:docname="Pad_10inch.svg"
   inkscape:version="1.3 (0e150ed6c4, 2023-07-21)"
   xmlns:inkscape="http://www.inkscape.org/namespaces/inkscape"
   xmlns:sodipodi="http://sodipodi.sourceforge.net/DTD/sodipodi-0.dtd"
   xmlns:xlink="http://www.w3.org/1999/xlink"
   xmlns="http://www.w3.org/2000/svg"
   xmlns:svg="http://www.w3.org/2000/svg">
  <sodipodi:namedview
     id="namedview66"
     pagecolor="#ffffff"
     bordercolor="#000000"
     borderopacity="0.25"
     inkscape:showpageshadow="2"
     inkscape:pageopacity="0.0"
     inkscape:pagecheckerboard="0"
     inkscape:deskcolor="#d1d1d1"
     inkscape:zoom="0.8186939"
     inkscape:cx="428.12094"
     inkscape:cy="509.95861"
     inkscape:window-width="1920"
     inkscape:window-height="1137"
     inkscape:window-x="1912"
     inkscape:window-y="-8"
     inkscape:window-maximized="1"
     inkscape:current-layer="svg66" />
  <desc
     id="desc1">Pad_10inch (1).dxf - scale = 1.000000, origin = (0.000000, 0.000000), method = manual</desc>
  <defs
     id="defs56">
    <marker
       id="DistanceX"
       orient="auto"
       refX="0"
       refY="0"
       style="overflow:visible">
      <path
         d="M 3,-3 -3,3 M 0,-5 V 5"
         style="stroke:#000000;stroke-width:0.5"
         id="path1" />
    </marker>
    <pattern
       id="Hatch"
       patternUnits="userSpaceOnUse"
       width="8"
       height="8"
       x="0"
       y="0">
      <path
         d="M8 4 l-4,4"
         stroke="#000000"
         stroke-width="0.25"
         linecap="square"
         id="path2" />
      <path
         d="M6 2 l-4,4"
         stroke="#000000"
         stroke-width="0.25"
         linecap="square"
         id="path3" />
      <path
         d="M4 0 l-4,4"
         stroke="#000000"
         stroke-width="0.25"
         linecap="square"
         id="path4" />
    </pattern>
    <symbol
       id="*Model_Space" />
    <symbol
       id="*Paper_Space" />
    <symbol
       id="*Paper_Space0" />
    <symbol
       id="block_2">
      <use
         xlink:href="#block_3"
         style="stroke-width:0.5px"
         id="use4" />
      <path
         d="m 164.86866,1744.2898 c 0,6.2622 -5.07653,11.3386 -11.33866,11.3386 -6.262,0 -11.33854,-5.0764 -11.33854,-11.3386 0,-6.2621 5.07654,-11.3386 11.33854,-11.3386 6.26213,0 11.33866,5.0765 11.33866,11.3386 z"
         style="fill:none;stroke:#333333"
         id="path5" />
      <path
         d="m -299.044,1999.0372 c 5.4232,3.131 7.28133,10.0657 4.15027,15.4888 -3.13107,5.4232 -10.06574,7.2813 -15.4888,4.1502 -5.4232,-3.131 -7.28134,-10.0656 -4.15027,-15.4888 3.13107,-5.4232 10.0656,-7.2813 15.4888,-4.1502 z"
         style="fill:none;stroke:#333333"
         id="path6" />
      <path
         d="m -310.38253,2528.171 c 5.42306,-3.131 12.35773,-1.2729 15.4888,4.1503 3.13106,5.4231 1.27293,12.3577 -4.15027,15.4888 -5.4232,3.1311 -12.35773,1.2729 -15.4888,-4.1503 -3.13107,-5.4232 -1.27293,-12.3577 4.15027,-15.4888 z"
         style="fill:none;stroke:#333333"
         id="path7" />
      <path
         d="m 142.19146,2802.5574 c 0,-6.2621 5.0764,-11.3385 11.33854,-11.3385 6.26213,0 11.33866,5.0764 11.33866,11.3385 0,6.2622 -5.07653,11.3387 -11.33866,11.3387 -6.26214,0 -11.33854,-5.0765 -11.33854,-11.3387 z"
         style="fill:none;stroke:#333333"
         id="path8" />
      <path
         d="m 606.10412,2547.8101 c -5.4232,-3.1311 -7.28134,-10.0657 -4.15027,-15.4888 3.13107,-5.4232 10.0656,-7.2813 15.48882,-4.1503 5.42318,3.1311 7.28133,10.0656 4.15025,15.4888 -3.13107,5.4232 -10.0656,7.2814 -15.4888,4.1503 z"
         style="fill:none;stroke:#333333"
         id="path9" />
      <path
         d="m 617.44267,2018.6762 c -5.42309,3.1311 -12.35775,1.273 -15.48882,-4.1502 -3.13107,-5.4231 -1.27293,-12.3578 4.15027,-15.4888 5.4232,-3.1311 12.35773,-1.273 15.4888,4.1502 3.13108,5.4232 1.27293,12.3578 -4.15025,15.4888 z"
         style="fill:none;stroke:#333333"
         id="path10" />
      <path
         d="m -187.16093,2414.7966 c 292.9168,-168.9542 292.72626,-507.1341 292.66333,-507.1704 0,-44.9264 -36.42,-81.3464 -81.3464,-81.3464 -9.297067,0 -18.52532,1.5938 -27.283853,4.712 0,0 -1.34e-4,0.037 -1.34e-4,0.037 -65.10188,22.9906 -124.767883,60.4392 -175.032683,110.704 -88.57093,88.5702 -137.34866,206.3312 -137.34866,331.589 0,29.0669 2.62666,57.7301 7.76773,85.7185 8.1124,44.1879 50.51,73.4329 94.698,65.3207 9.14413,-1.6788 17.8312,-4.916 25.88267,-9.5646 z"
         style="fill:none;stroke:#333333"
         id="path11" />
      <path
         d="m 446.244,2497.5454 c -292.77707,-169.1964 -585.55413,0.059 -585.55413,0.1312 -38.90734,22.4632 -52.238,72.2139 -29.7748,111.1214 4.64853,8.0514 10.64293,15.2465 17.72266,21.2725 0,0 0.0323,-0.018 0.0323,-0.018 52.461333,44.8845 114.725867,77.8324 183.3888,96.2307 120.98946,32.4196 247.36239,15.7817 355.83879,-46.8471 25.17267,-14.5335 48.68241,-31.1399 70.35053,-49.5863 34.2116,-29.1194 38.33973,-80.4594 9.22027,-114.6712 -6.02587,-7.0797 -13.17294,-12.9842 -21.22439,-17.6328 z"
         style="fill:none;stroke:#333333"
         id="path12" />
      <path
         d="m 201.20413,1907.6262 c -0.13987,338.1506 292.82787,507.0754 292.89066,507.0391 38.90746,22.4632 88.65813,9.1325 111.12133,-29.7748 4.64853,-8.0515 7.8824,-16.8403 9.56121,-25.9845 0,0 -0.0322,-0.019 -0.0322,-0.019 12.64067,-67.8751 10.042,-138.2718 -8.35613,-206.9347 -32.41853,-120.9897 -110.01373,-222.1131 -218.49013,-284.7419 -25.17266,-14.5334 -51.30906,-26.5902 -78.11826,-36.1322 -42.324,-15.0684 -88.84987,7.0265 -103.91827,49.3505 -3.11826,8.7585 -4.65826,17.9003 -4.65826,27.1973 z"
         style="fill:none;stroke:#333333"
         id="path13" />
    </symbol>
    <symbol
       id="block_3">
      <path
         d="m -320.82347,2570.9117 c 17.36454,4.0084 32.76707,13.9939 43.514,28.21 88.00534,116.4151 219.375603,192.2617 364.19667,210.2691 17.68493,2.1989 34.034,10.5453 46.1876,23.5792 10.53413,11.2972 28.232,11.9157 39.5292,1.3814 0.47653,-0.4442 0.93733,-0.905 1.3816,-1.3814 12.15359,-13.0339 28.50253,-21.3803 46.18746,-23.5792 144.8212,-18.0074 276.19146,-93.854 364.19679,-210.2691 10.7468,-14.2161 26.14947,-24.2016 43.51387,-28.21 15.0508,-3.4743 24.43546,-18.4919 20.9612,-33.5427 -0.14654,-0.6346 -0.3152,-1.2641 -0.50574,-1.8872 -5.2108,-17.0422 -4.26451,-35.374 2.6736,-51.789 56.81587,-134.4224 56.81587,-286.1159 0,-420.5383 -6.93811,-16.4151 -7.8844,-34.7468 -2.6736,-51.7891 4.51654,-14.7716 -3.79666,-30.4076 -18.56813,-34.9242 -0.62305,-0.1904 -1.25253,-0.3591 -1.88733,-0.5056 -17.3644,-4.0084 -32.76707,-13.9939 -43.51387,-28.21 -88.00533,-116.4152 -219.37559,-192.2619 -364.19679,-210.2691 -17.68493,-2.1989 -34.03387,-10.5453 -46.18746,-23.5792 -10.53427,-11.2972 -28.23214,-11.9157 -39.52934,-1.3816 -0.4764,0.4444 -0.9372,0.9052 -1.38146,1.3816 -12.1536,13.0339 -28.50267,21.3803 -46.1876,23.5792 -144.821067,18.0072 -276.19133,93.854 -364.19667,210.2691 -10.74693,14.2161 -26.14946,24.2016 -43.514,28.21 -15.0508,3.4742 -24.43533,18.4918 -20.96106,33.5425 0.14653,0.6348 0.3152,1.2643 0.50573,1.8873 5.2108,17.0423 4.2644,35.374 -2.6736,51.7891 -56.81587,134.4224 -56.81587,286.1159 0,420.5383 6.938,16.415 7.8844,34.7468 2.6736,51.789 -4.51667,14.7716 3.79667,30.4076 18.56813,34.9242 0.62307,0.1905 1.2524,0.3592 1.8872,0.5057 z"
         style="fill:none;stroke:#333333"
         id="path14" />
    </symbol>
    <symbol
       id="block_4">
      <use
         xlink:href="#block_5"
         style="stroke-width:0.5px"
         id="use14" />
      <path
         d="m -326.84773,1071.1252 c 0,-265.30537 215.07266,-480.3779 480.37799,-480.3779 265.30546,0 480.37799,215.07253 480.37799,480.3779 0,265.3054 -215.07253,480.378 -480.37799,480.378 -265.30533,0 -480.37799,-215.0726 -480.37799,-480.378 z"
         style="fill:none;stroke:#333333"
         id="path15" />
      <path
         d="m 164.86893,541.9913 c 0,6.26213 -5.07653,11.33867 -11.33867,11.33867 -6.26213,0 -11.33853,-5.07654 -11.33853,-11.33867 0,-6.26213 5.0764,-11.33853 11.33853,-11.33853 6.26214,0 11.33867,5.0764 11.33867,11.33853 z"
         style="fill:none;stroke:#333333"
         id="path16" />
      <path
         d="m -299.04373,796.73876 c 5.4232,3.13107 7.28133,10.0656 4.15026,15.4888 -3.13106,5.4232 -10.06573,7.28133 -15.4888,4.15027 -5.4232,-3.13107 -7.28133,-10.06574 -4.15026,-15.48881 3.13106,-5.42319 10.0656,-7.28134 15.4888,-4.15026 z"
         style="fill:none;stroke:#333333"
         id="path17" />
      <path
         d="m -310.38227,1325.8726 c 5.42307,-3.131 12.35774,-1.2729 15.4888,4.1502 3.13107,5.4232 1.27294,12.3577 -4.15026,15.4888 -5.4232,3.131 -12.35774,1.2729 -15.4888,-4.1502 -3.13107,-5.4232 -1.27294,-12.3577 4.15026,-15.4888 z"
         style="fill:none;stroke:#333333"
         id="path18" />
      <path
         d="m 142.19173,1600.259 c 0,-6.2621 5.0764,-11.3385 11.33853,-11.3385 6.26214,0 11.33867,5.0764 11.33867,11.3385 0,6.2622 -5.07653,11.3386 -11.33867,11.3386 -6.26213,0 -11.33853,-5.0764 -11.33853,-11.3386 z"
         style="fill:none;stroke:#333333"
         id="path19" />
      <path
         d="m 606.10438,1345.5116 c -5.42319,-3.1311 -7.28133,-10.0656 -4.15026,-15.4888 3.13107,-5.4231 10.0656,-7.2812 15.4888,-4.1502 5.4232,3.1311 7.28133,10.0656 4.15026,15.4888 -3.13106,5.4231 -10.0656,7.2812 -15.4888,4.1502 z"
         style="fill:none;stroke:#333333"
         id="path20" />
      <path
         d="m 617.44292,816.37783 c -5.42307,3.13106 -12.35773,1.27293 -15.4888,-4.15027 -3.13107,-5.4232 -1.27293,-12.35773 4.15026,-15.4888 5.4232,-3.13108 12.35774,-1.27293 15.4888,4.15026 3.13107,5.42307 1.27294,12.35774 -4.15026,15.48881 z"
         style="fill:none;stroke:#333333"
         id="path21" />
    </symbol>
    <symbol
       id="block_5">
      <path
         d="m 648.33932,1333.1834 c 0.19053,0.623 0.3592,1.2524 0.50573,1.8872 3.47427,15.0508 -5.91038,30.0684 -20.9612,33.5427 -17.3644,4.0084 -32.76706,13.9939 -43.51386,28.2099 -88.00534,116.4152 -219.3756,192.2618 -364.1968,210.2692 -17.68493,2.1989 -34.03386,10.5452 -46.18746,23.5792 -0.44427,0.4764 -0.90507,0.9372 -1.3816,1.3814 -11.2972,10.5343 -28.99507,9.9158 -39.52933,-1.3814 -12.15347,-13.034 -28.50253,-21.3803 -46.187467,-23.5792 -144.821066,-18.0074 -276.191463,-93.854 -364.196803,-210.2692 -10.7468,-14.216 -26.14933,-24.2015 -43.51386,-28.2099 -0.6348,-0.1465 -1.26427,-0.3152 -1.8872,-0.5057 -14.7716,-4.5166 -23.0848,-20.1527 -18.56827,-34.9242 5.21093,-17.0422 4.26453,-35.374 -2.6736,-51.7892 -56.81573,-134.4224 -56.81573,-286.11571 0,-420.53811 6.93813,-16.41507 7.88453,-34.74693 2.6736,-51.7892 -0.1904,-0.62293 -0.35907,-1.2524 -0.5056,-1.88721 -3.47427,-15.05079 5.91027,-30.06825 20.96107,-33.54252 17.36453,-4.0084 32.76706,-13.99387 43.51386,-28.21 88.00534,-116.4152 219.375737,-192.26186 364.196803,-210.26906 17.684937,-2.19907 34.033997,-10.54533 46.187467,-23.5792 0.4444,-0.47655 0.9052,-0.93733 1.3816,-1.3816 11.2972,-10.53413 28.99506,-9.9156 39.52933,1.3816 12.1536,13.03387 28.50253,21.38013 46.18746,23.5792 144.8212,18.0072 276.19146,93.85386 364.1968,210.26906 10.7468,14.21613 26.14946,24.2016 43.51386,28.21 0.63482,0.14652 1.26427,0.3152 1.8872,0.5056 14.77162,4.51653 23.0848,20.15267 18.56827,34.92413 -5.21094,17.04227 -4.26454,35.37413 2.6736,51.7892 56.81573,134.4224 56.81573,286.11571 0,420.53831 -6.93814,16.415 -7.88454,34.7468 -2.6736,51.789 z"
         style="fill:none;stroke:#333333"
         id="path22" />
    </symbol>
    <symbol
       id="block_6">
      <use
         xlink:href="#block_7"
         style="stroke-width:0.5px"
         id="use22" />
      <use
         xlink:href="#block_8"
         style="stroke-width:0.5px"
         id="use23" />
      <use
         xlink:href="#block_9"
         style="stroke-width:0.5px"
         id="use24" />
      <use
         xlink:href="#block_10"
         style="stroke-width:0.5px"
         id="use25" />
      <use
         xlink:href="#block_11"
         style="stroke-width:0.5px"
         id="use26" />
      <use
         xlink:href="#block_12"
         style="stroke-width:0.5px"
         id="use27" />
      <use
         xlink:href="#block_13"
         style="stroke-width:0.5px"
         id="use28" />
      <use
         xlink:href="#block_14"
         style="stroke-width:0.5px"
         id="use29" />
    </symbol>
    <symbol
       id="block_7">
      <path
         d="m 892.97733,1053.6393 c 0,-269.27147 218.28757,-487.55907 487.55907,-487.55907 269.2713,0 487.5591,218.2876 487.5591,487.55907 0,269.2713 -218.2878,487.5591 -487.5591,487.5591 -269.2715,0 -487.55907,-218.2878 -487.55907,-487.5591 z"
         style="fill:none;stroke:#333333"
         id="path29" />
    </symbol>
    <symbol
       id="block_8">
      <path
         d="m 906.09771,1351.4956 c 17.27813,3.9885 32.60413,13.9242 43.29747,28.0696 88.06692,116.4966 219.52902,192.3964 364.45162,210.4162 17.5969,2.1882 33.8645,10.4928 45.9577,23.4619 10.6766,11.4499 28.6136,12.0768 40.0635,1.4003 0.4829,-0.4503 0.9499,-0.9174 1.4003,-1.4003 12.093,-12.9691 28.3606,-21.2737 45.9576,-23.4619 144.9225,-18.0198 276.3848,-93.9196 364.4517,-210.4162 10.6933,-14.1454 26.0193,-24.0811 43.2973,-28.0696 15.2543,-3.5212 24.7656,-18.7418 21.2444,-33.9959 -0.1485,-0.6433 -0.3194,-1.2813 -0.5125,-1.9127 -5.1849,-16.9574 -4.2432,-35.1981 2.6603,-51.5314 56.8556,-134.5166 56.8556,-286.31605 0,-420.83258 -6.9035,-16.33346 -7.8452,-34.574 -2.6603,-51.53146 4.5776,-14.9712 -3.848,-30.81854 -18.8191,-35.39613 -0.6314,-0.19308 -1.2693,-0.364 -1.9128,-0.51254 -17.278,-3.9884 -32.604,-13.92426 -43.2973,-28.06959 -88.0669,-116.49667 -219.5292,-192.3964 -364.4517,-210.41628 -17.597,-2.188 -33.8646,-10.49279 -45.9576,-23.46185 -10.6767,-11.44987 -28.6136,-12.07682 -40.0636,-1.40014 -0.4828,0.45027 -0.9499,0.9172 -1.4002,1.40014 -12.0932,12.96906 -28.3608,21.27385 -45.9577,23.46185 -144.9226,18.01988 -276.3847,93.91961 -364.45162,210.41628 -10.69334,14.14533 -26.01934,24.08119 -43.29747,28.06959 -15.25413,3.5212 -24.7656,18.74174 -21.24438,33.99587 0.14851,0.64333 0.31945,1.28133 0.51251,1.9128 5.18494,16.95746 4.24334,35.198 -2.66026,51.53146 -56.8556,134.51653 -56.8556,286.31598 0,420.83258 6.9036,16.3333 7.8452,34.574 2.66026,51.5314 -4.5776,14.9711 3.848,30.8184 18.8192,35.396 0.63134,0.1931 1.26934,0.3642 1.91267,0.5126 z"
         style="fill:none;stroke:#333333"
         id="path30" />
    </symbol>
    <symbol
       id="block_9">
      <path
         d="m 1399.434,535.41597 -18.8976,10.91053 -18.8976,-10.91053 V 513.5949 l 18.8976,-10.91053 18.8976,10.91053 v 21.82107"
         style="fill:none;stroke:#333333"
         id="path31" />
    </symbol>
    <symbol
       id="block_10">
      <path
         d="m 941.19067,778.16183 v 21.82106 l -18.89763,10.91054 -18.8976,-10.91054 v -21.82106 l 18.8976,-10.91054 18.89763,10.91054"
         style="fill:none;stroke:#333333"
         id="path32" />
    </symbol>
    <symbol
       id="block_11">
      <path
         d="m 922.29304,1296.3852 18.89763,10.9105 v 21.8211 l -18.89763,10.9105 -18.8976,-10.9105 v -21.8211 l 18.8976,-10.9105"
         style="fill:none;stroke:#333333"
         id="path33" />
    </symbol>
    <symbol
       id="block_12">
      <path
         d="m 1361.6388,1571.8625 18.8976,-10.9105 18.8976,10.9105 v 21.8212 l -18.8976,10.9105 -18.8976,-10.9105 v -21.8212"
         style="fill:none;stroke:#333333"
         id="path34" />
    </symbol>
    <symbol
       id="block_13">
      <path
         d="m 1819.8821,1329.1168 v -21.8211 l 18.8976,-10.9105 18.8976,10.9105 v 21.8211 l -18.8976,10.9105 -18.8976,-10.9105"
         style="fill:none;stroke:#333333"
         id="path35" />
    </symbol>
    <symbol
       id="block_14">
      <path
         d="m 1838.7797,810.89343 -18.8976,-10.91054 v -21.82106 l 18.8976,-10.91054 18.8976,10.91054 v 21.82106 l -18.8976,10.91054"
         style="fill:none;stroke:#333333"
         id="path36" />
    </symbol>
    <symbol
       id="block_15">
      <use
         xlink:href="#block_16"
         style="stroke-width:0.5px"
         id="use36" />
      <path
         d="m 958.97838,2015.2524 c -11.8804,2.7516 -21.06467,13.021 -21.88054,25.8162 -0.21733,3.4079 0.18294,6.827 1.18134,10.0924 5.18493,16.9575 4.24333,35.198 -2.66027,51.5315 -56.8556,134.5165 -56.8556,286.316 0,420.8325 6.9036,16.3334 7.8452,34.574 2.66027,51.5315 -4.5776,14.9711 3.848,30.8185 18.81906,35.3961 0.63147,0.1931 1.26947,0.364 1.9128,0.5124 17.27813,3.9886 32.604,13.9243 43.29746,28.0698 88.0669,116.4965 219.5291,192.3962 364.4516,210.4161 17.597,2.1881 33.8646,10.4929 45.9578,23.4619 10.6765,11.45 28.6136,12.0768 40.0634,1.4002 0.483,-0.4502 0.9499,-0.9173 1.4002,-1.4002 12.0932,-12.969 28.3608,-21.2738 45.9577,-23.4619 144.9225,-18.0199 276.3848,-93.9196 364.4517,-210.4161 10.6934,-14.1455 26.0194,-24.0812 43.2974,-28.0698 15.2542,-3.5212 24.7656,-18.7416 21.2444,-33.9958 -0.1486,-0.6434 -0.3195,-1.2814 -0.5126,-1.9127 -5.1849,-16.9575 -4.2433,-35.1981 2.6603,-51.5315 56.8556,-134.5165 56.8556,-286.316 0,-420.8325 -6.9036,-16.3335 -7.8452,-34.574 -2.6603,-51.5315 4.5776,-14.971 -3.848,-30.8185 -18.819,-35.3961 -0.6315,-0.1931 -1.2695,-0.364 -1.9128,-0.5125 -17.278,-3.9884 -32.604,-13.9242 -43.2974,-28.0696 -88.0669,-116.4966 -219.5292,-192.3964 -364.4517,-210.4163 -17.5969,-2.188 -33.8645,-10.4928 -45.9577,-23.4619 -10.6766,-11.4498 -28.6136,-12.0768 -40.0635,-1.4001 -0.4835,0.4508 -0.9504,0.9179 -1.4001,1.4001 -12.0932,12.9691 -28.3608,21.2739 -45.9578,23.4619 -144.9225,18.0199 -276.3847,93.9197 -364.4516,210.4163 -10.69346,14.1454 -26.01933,24.0812 -43.29746,28.0696"
         style="fill:none;stroke:#333333"
         id="path37" />
      <path
         d="m 1444.7883,1783.9749 c 0,6.2621 -5.0764,11.3385 -11.3386,11.3385 -6.2621,0 -11.3386,-5.0764 -11.3386,-11.3385 0,-6.2621 5.0765,-11.3385 11.3386,-11.3385 6.2622,0 11.3386,5.0764 11.3386,11.3385 z"
         style="fill:none;stroke:#333333"
         id="path38" />
      <path
         d="m 980.87558,2038.7224 c 5.42319,3.131 7.28133,10.0656 4.15026,15.4888 -3.13107,5.423 -10.0656,7.2812 -15.4888,4.1501 -5.4232,-3.1311 -7.28133,-10.0656 -4.15027,-15.4888 3.13107,-5.4232 10.06574,-7.2812 15.48881,-4.1501 z"
         style="fill:none;stroke:#333333"
         id="path39" />
      <path
         d="m 969.53704,2567.8561 c 5.4232,-3.1311 12.35773,-1.2729 15.4888,4.1503 3.13107,5.4232 1.27293,12.3577 -4.15026,15.4888 -5.42321,3.131 -12.35774,1.2729 -15.48881,-4.1503 -3.13106,-5.4231 -1.27293,-12.3577 4.15027,-15.4888 z"
         style="fill:none;stroke:#333333"
         id="path40" />
      <path
         d="m 1422.1111,2842.2426 c 0,-6.2621 5.0765,-11.3386 11.3386,-11.3386 6.2622,0 11.3386,5.0765 11.3386,11.3386 0,6.262 -5.0764,11.3386 -11.3386,11.3386 -6.2621,0 -11.3386,-5.0766 -11.3386,-11.3386 z"
         style="fill:none;stroke:#333333"
         id="path41" />
      <path
         d="m 1886.0237,2587.4952 c -5.4232,-3.1311 -7.2813,-10.0656 -4.1502,-15.4888 3.131,-5.4232 10.0657,-7.2814 15.4888,-4.1503 5.4232,3.1311 7.2813,10.0657 4.1502,15.4888 -3.131,5.4232 -10.0656,7.2813 -15.4888,4.1503 z"
         style="fill:none;stroke:#333333"
         id="path42" />
      <path
         d="m 1897.3623,2058.3613 c -5.4231,3.1311 -12.3578,1.2729 -15.4888,-4.1501 -3.1311,-5.4232 -1.273,-12.3578 4.1502,-15.4888 5.4232,-3.1311 12.3578,-1.2731 15.4888,4.1501 3.1311,5.4232 1.273,12.3577 -4.1502,15.4888 z"
         style="fill:none;stroke:#333333"
         id="path43" />
    </symbol>
    <symbol
       id="block_16">
      <path
         d="m 945.89067,2313.1088 c 0,-269.2715 218.28753,-487.5591 487.55903,-487.5591 269.2714,0 487.5591,218.2876 487.5591,487.5591 0,269.2714 -218.2877,487.559 -487.5591,487.559 -269.2715,0 -487.55903,-218.2876 -487.55903,-487.559 z"
         style="fill:none;stroke:#333333"
         id="path44" />
    </symbol>
    <symbol
       id="block_17">
      <use
         xlink:href="#block_18"
         style="stroke-width:0.5px"
         id="use44" />
      <path
         d="m 159.2336,873.65916 c 0,3.13106 -2.53827,5.66933 -5.66934,5.66933 -3.13106,0 -5.66933,-2.53827 -5.66933,-5.66933 0,-3.13107 2.53827,-5.66934 5.66933,-5.66934 3.13107,0 5.66934,2.53827 5.66934,5.66934 z"
         style="fill:none;stroke:#333333"
         id="path45" />
      <path
         d="m -19.188,1163.3778 c 2.7116,-1.5654 6.17888,-0.6364 7.744413,2.0751 1.56552,2.7116 0.636467,6.1789 -2.07508,7.7444 -2.7116,1.5656 -6.178933,0.6365 -7.7444,-2.0751 -1.5656,-2.7116 -0.636533,-6.1788 2.075067,-7.7444 z"
         style="fill:none;stroke:#333333"
         id="path46" />
      <path
         d="m 320.92653,1173.0361 c -2.71161,-1.5655 -3.64067,-5.0328 -2.07507,-7.7444 1.56546,-2.7116 5.0328,-3.6407 7.7444,-2.0751 2.7116,1.5655 3.64066,5.0328 2.07506,7.7444 -1.56546,2.7116 -5.0328,3.6407 -7.74439,2.0751 z"
         style="fill:none;stroke:#333333"
         id="path47" />
    </symbol>
    <symbol
       id="block_18">
      <path
         d="M 310.65626,627.78596 C 261.02213,610.2285 208.22333,601.07677 154.01786,601.05968 99.8124,601.04235 47.007867,610.1605 -2.637413,627.68635"
         style="fill:none;stroke:#333333"
         id="path48" />
      <path
         d="m -308.812,1147.6445 c 0.43853,2.6473 0.8996,5.2889 1.38267,7.9247 8.09826,44.1904 50.4868,73.4488 94.6772,65.3505 9.1448,-1.6759 17.8328,-4.9103 25.88586,-9.5563"
         style="fill:none;stroke:#333333"
         id="path49" />
      <path
         d="m -186.86627,1211.3634 c 292.9704,-168.861 292.88734,-507.0409 292.82454,-507.07717 0.0143,-44.9264 -36.39427,-81.35813 -81.320537,-81.37227 -9.2972,-0.003 -18.525866,1.58787 -27.28544,4.70334 0,0 -1.73e-4,0.0371 -1.73e-4,0.0371 -8.057693,2.84267 -16.032253,5.90681 -23.915987,9.18921"
         style="fill:none;stroke:#333333"
         id="path50" />
      <path
         d="m 453.74865,1430.5885 c 1.58481,-1.3128 3.16,-2.6352 4.72561,-3.9671 34.22093,-29.1085 38.36533,-80.4473 9.2568,-114.6681 -6.02374,-7.0817 -13.16881,-12.9887 -21.21881,-17.6397"
         style="fill:none;stroke:#333333"
         id="path51" />
      <path
         d="m 446.51225,1294.3136 c -292.72332,-169.2894 -585.55398,-0.1275 -585.55412,-0.055 -38.91453,22.4508 -52.26093,72.1972 -29.81013,111.1117 4.64587,8.0531 10.638,15.25 17.71587,21.2781 0,0 0.0323,-0.018 0.0323,-0.018 1.3988,1.1978 2.80467,2.387 4.21747,3.5674"
         style="fill:none;stroke:#333333"
         id="path52" />
      <path
         d="m 315.044,629.53676 c -1.592,-0.5868 -3.18641,-1.16453 -4.78321,-1.73346 -42.3192,-15.082 -88.852,6.99826 -103.934,49.31746 -3.12106,8.75759 -4.664,17.8988 -4.66693,27.19587"
         style="fill:none;stroke:#333333"
         id="path53" />
      <path
         d="m 201.65986,704.31663 c -0.2472,338.15037 292.66666,507.16837 292.72947,507.13217 38.90039,22.4754 88.65519,9.1606 111.13079,-29.7395 4.65106,-8.0501 7.88788,-16.8379 9.56946,-25.9816 0,0 -0.0321,-0.019 -0.0321,-0.019 0.53333,-2.8584 1.03947,-5.7212 1.5188,-8.5881"
         style="fill:none;stroke:#333333"
         id="path54" />
      <path
         d="m -307.49053,1155.3228 c 9.612,51.763 28.08586,102.064 55.17346,149.016 27.08787,46.9518 61.38667,88.1229 101.3872,122.3541"
         style="fill:none;stroke:#333333"
         id="path55" />
      <path
         d="m 458.44319,1426.8852 c 40.02226,-34.2058 74.3472,-75.3551 101.46481,-122.2896 27.11772,-46.9348 45.62345,-97.2239 55.26825,-148.981"
         style="fill:none;stroke:#333333"
         id="path56" />
    </symbol>
  </defs>
  <g
     id="g121"
     transform="translate(-1279.7914,-1259.7179)"
     style="display:none">
    <g
       id="use59"
       style="vector-effect:non-scaling-stroke;fill:none;stroke:#ff0000;stroke-width:1;stroke-dasharray:none;stroke-opacity:1;-inkscape-stroke:hairline"
       transform="translate(386.81423,-484.57181)">
      <g
         id="use98"
         style="vector-effect:non-scaling-stroke;stroke:#ff0000;stroke-width:1;stroke-dasharray:none;stroke-opacity:1;-inkscape-stroke:hairline">
        <path
           d="m 945.89067,2313.1088 c 0,-269.2715 218.28753,-487.5591 487.55903,-487.5591 269.2714,0 487.5591,218.2876 487.5591,487.5591 0,269.2714 -218.2877,487.559 -487.5591,487.559 -269.2715,0 -487.55903,-218.2876 -487.55903,-487.559 z"
           style="vector-effect:non-scaling-stroke;fill:none;stroke:#ff0000;stroke-width:1;stroke-dasharray:none;stroke-opacity:1;-inkscape-stroke:hairline"
           id="path106" />
      </g>
      <path
         d="m 958.97838,2015.2524 c -11.8804,2.7516 -21.06467,13.021 -21.88054,25.8162 -0.21733,3.4079 0.18294,6.827 1.18134,10.0924 5.18493,16.9575 4.24333,35.198 -2.66027,51.5315 -56.8556,134.5165 -56.8556,286.316 0,420.8325 6.9036,16.3334 7.8452,34.574 2.66027,51.5315 -4.5776,14.9711 3.848,30.8185 18.81906,35.3961 0.63147,0.1931 1.26947,0.364 1.9128,0.5124 17.27813,3.9886 32.604,13.9243 43.29746,28.0698 88.0669,116.4965 219.5291,192.3962 364.4516,210.4161 17.597,2.1881 33.8646,10.4929 45.9578,23.4619 10.6765,11.45 28.6136,12.0768 40.0634,1.4002 0.483,-0.4502 0.9499,-0.9173 1.4002,-1.4002 12.0932,-12.969 28.3608,-21.2738 45.9577,-23.4619 144.9225,-18.0199 276.3848,-93.9196 364.4517,-210.4161 10.6934,-14.1455 26.0194,-24.0812 43.2974,-28.0698 15.2542,-3.5212 24.7656,-18.7416 21.2444,-33.9958 -0.1486,-0.6434 -0.3195,-1.2814 -0.5126,-1.9127 -5.1849,-16.9575 -4.2433,-35.1981 2.6603,-51.5315 56.8556,-134.5165 56.8556,-286.316 0,-420.8325 -6.9036,-16.3335 -7.8452,-34.574 -2.6603,-51.5315 4.5776,-14.971 -3.848,-30.8185 -18.819,-35.3961 -0.6315,-0.1931 -1.2695,-0.364 -1.9128,-0.5125 -17.278,-3.9884 -32.604,-13.9242 -43.2974,-28.0696 -88.0669,-116.4966 -219.5292,-192.3964 -364.4517,-210.4163 -17.5969,-2.188 -33.8645,-10.4928 -45.9577,-23.4619 -10.6766,-11.4498 -28.6136,-12.0768 -40.0635,-1.4001 -0.4835,0.4508 -0.9504,0.9179 -1.4001,1.4001 -12.0932,12.9691 -28.3608,21.2739 -45.9578,23.4619 -144.9225,18.0199 -276.3847,93.9197 -364.4516,210.4163 -10.69346,14.1454 -26.01933,24.0812 -43.29746,28.0696"
         style="vector-effect:non-scaling-stroke;fill:none;stroke:#ff0000;stroke-width:1;stroke-dasharray:none;stroke-opacity:1;-inkscape-stroke:hairline"
         id="path99" />
      <path
         d="m 1444.7883,1783.9749 c 0,6.2621 -5.0764,11.3385 -11.3386,11.3385 -6.2621,0 -11.3386,-5.0764 -11.3386,-11.3385 0,-6.2621 5.0765,-11.3385 11.3386,-11.3385 6.2622,0 11.3386,5.0764 11.3386,11.3385 z"
         style="vector-effect:non-scaling-stroke;fill:none;stroke:#ff0000;stroke-width:1;stroke-dasharray:none;stroke-opacity:1;-inkscape-stroke:hairline"
         id="path100" />
      <path
         d="m 980.87558,2038.7224 c 5.42319,3.131 7.28133,10.0656 4.15026,15.4888 -3.13107,5.423 -10.0656,7.2812 -15.4888,4.1501 -5.4232,-3.1311 -7.28133,-10.0656 -4.15027,-15.4888 3.13107,-5.4232 10.06574,-7.2812 15.48881,-4.1501 z"
         style="vector-effect:non-scaling-stroke;fill:none;stroke:#ff0000;stroke-width:1;stroke-dasharray:none;stroke-opacity:1;-inkscape-stroke:hairline"
         id="path101" />
      <path
         d="m 969.53704,2567.8561 c 5.4232,-3.1311 12.35773,-1.2729 15.4888,4.1503 3.13107,5.4232 1.27293,12.3577 -4.15026,15.4888 -5.42321,3.131 -12.35774,1.2729 -15.48881,-4.1503 -3.13106,-5.4231 -1.27293,-12.3577 4.15027,-15.4888 z"
         style="vector-effect:non-scaling-stroke;fill:none;stroke:#ff0000;stroke-width:1;stroke-dasharray:none;stroke-opacity:1;-inkscape-stroke:hairline"
         id="path102" />
      <path
         d="m 1422.1111,2842.2426 c 0,-6.2621 5.0765,-11.3386 11.3386,-11.3386 6.2622,0 11.3386,5.0765 11.3386,11.3386 0,6.262 -5.0764,11.3386 -11.3386,11.3386 -6.2621,0 -11.3386,-5.0766 -11.3386,-11.3386 z"
         style="vector-effect:non-scaling-stroke;fill:none;stroke:#ff0000;stroke-width:1;stroke-dasharray:none;stroke-opacity:1;-inkscape-stroke:hairline"
         id="path103" />
      <path
         d="m 1886.0237,2587.4952 c -5.4232,-3.1311 -7.2813,-10.0656 -4.1502,-15.4888 3.131,-5.4232 10.0657,-7.2814 15.4888,-4.1503 5.4232,3.1311 7.2813,10.0657 4.1502,15.4888 -3.131,5.4232 -10.0656,7.2813 -15.4888,4.1503 z"
         style="vector-effect:non-scaling-stroke;fill:none;stroke:#ff0000;stroke-width:1;stroke-dasharray:none;stroke-opacity:1;-inkscape-stroke:hairline"
         id="path104" />
      <path
         d="m 1897.3623,2058.3613 c -5.4231,3.1311 -12.3578,1.2729 -15.4888,-4.1501 -3.1311,-5.4232 -1.273,-12.3578 4.1502,-15.4888 5.4232,-3.1311 12.3578,-1.2731 15.4888,4.1501 3.1311,5.4232 1.273,12.3577 -4.1502,15.4888 z"
         style="vector-effect:non-scaling-stroke;fill:none;stroke:#ff0000;stroke-width:1;stroke-dasharray:none;stroke-opacity:1;-inkscape-stroke:hairline"
         id="path105" />
    </g>
  </g>
  <g
     id="g1"
     style="display:inline">
    <path
       d="m 1938.9994,761.98859 c -122.322,-33.6752 -236.5867,-19.4684 -319.9209,2.9616 0,0 5e-4,0 5e-4,0 -33.3745,-30.7595 -57.7714,-71.113 -68.8144,-116.6838 0,0 0,0 0,0 90.2691,-89.0475 135.0951,-195.03711 157.348,-278.39791 0,0 -5e-4,-0.003 -5e-4,-0.003 22.056,-6.8964 45.517,-10.61306 69.8459,-10.61306 22.8043,0 44.846,3.26547 65.6828,9.35413 0,0 0,0.004 0,0.004 32.0144,122.70506 101.4235,214.51307 162.4936,275.44457 0,0 0,0 0,0 -10.2081,45.84 -33.8771,86.6073 -66.6436,117.9392"
       style="display:inline;vector-effect:non-scaling-stroke;fill:none;stroke:#ff0000;stroke-width:1;stroke-dasharray:none;stroke-opacity:1;-inkscape-stroke:hairline"
       id="path62"
       transform="translate(-1226.8781,-0.24842889)" />
    <path
       d="m 1783.2229,396.65335 c 0,3.13106 -2.5381,5.66933 -5.6692,5.66933 -3.1311,0 -5.6693,-2.53827 -5.6693,-5.66933 0,-3.13093 2.5382,-5.6692 5.6693,-5.6692 3.1311,0 5.6692,2.53827 5.6692,5.6692 z"
       style="display:inline;vector-effect:non-scaling-stroke;fill:none;stroke:#ff0000;stroke-width:1;stroke-dasharray:none;stroke-opacity:1;-inkscape-stroke:hairline"
       id="path63"
       transform="translate(-1226.8781,-0.24842889)" />
    <path
       d="m 1604.8014,686.37219 c 2.7115,-1.5656 6.1788,-0.6366 7.7444,2.075 1.5655,2.7116 0.6364,6.179 -2.0752,7.7444 -2.7116,1.5656 -6.1788,0.6366 -7.7444,-2.075 -1.5655,-2.7116 -0.6364,-6.179 2.0752,-7.7444 z"
       style="display:inline;vector-effect:non-scaling-stroke;fill:none;stroke:#ff0000;stroke-width:1;stroke-dasharray:none;stroke-opacity:1;-inkscape-stroke:hairline"
       id="path64"
       transform="translate(-1226.8781,-0.24842889)" />
    <path
       d="m 1944.916,696.03039 c -2.7116,-1.5656 -3.6407,-5.0328 -2.0752,-7.7444 1.5656,-2.7116 5.0329,-3.6406 7.7444,-2.0752 2.7116,1.5656 3.6406,5.033 2.0752,7.7444 -1.5656,2.7116 -5.0328,3.6407 -7.7444,2.0752 z"
       style="display:inline;vector-effect:non-scaling-stroke;fill:none;stroke:#ff0000;stroke-width:1;stroke-dasharray:none;stroke-opacity:1;-inkscape-stroke:hairline"
       id="path65"
       transform="translate(-1226.8781,-0.24842889)" />
    <path
       d="m 1796.4513,459.92077 c 0,10.43687 -8.4608,18.89763 -18.8977,18.89763 -10.4368,0 -18.8976,-8.46076 -18.8976,-18.89763 0,-10.43688 8.4608,-18.89764 18.8976,-18.89764 10.4369,0 18.8977,8.46076 18.8977,18.89764 z"
       style="display:inline;vector-effect:non-scaling-stroke;fill:none;stroke:#ff0000;stroke-width:1;stroke-dasharray:none;stroke-opacity:1;-inkscape-stroke:hairline"
       id="path66"
       transform="translate(-1226.8781,-0.24842889)" />
  </g>
  <g
     id="g120"
     transform="translate(-0.2499275,-1220.4108)"
     style="display:none">
    <g
       id="use56"
       style="vector-effect:non-scaling-stroke;fill:none;stroke:#ff0000;stroke-width:1;stroke-dasharray:none;stroke-opacity:1;-inkscape-stroke:hairline"
       transform="translate(386.81423,-484.57181)">
      <g
         id="use66"
         style="vector-effect:non-scaling-stroke;stroke:#ff0000;stroke-width:1;stroke-dasharray:none;stroke-opacity:1;-inkscape-stroke:hairline">
        <path
           d="m -320.82347,2570.9117 c 17.36454,4.0084 32.76707,13.9939 43.514,28.21 88.00534,116.4151 219.375603,192.2617 364.19667,210.2691 17.68493,2.1989 34.034,10.5453 46.1876,23.5792 10.53413,11.2972 28.232,11.9157 39.5292,1.3814 0.47653,-0.4442 0.93733,-0.905 1.3816,-1.3814 12.15359,-13.0339 28.50253,-21.3803 46.18746,-23.5792 144.8212,-18.0074 276.19146,-93.854 364.19679,-210.2691 10.7468,-14.2161 26.14947,-24.2016 43.51387,-28.21 15.0508,-3.4743 24.43546,-18.4919 20.9612,-33.5427 -0.14654,-0.6346 -0.3152,-1.2641 -0.50574,-1.8872 -5.2108,-17.0422 -4.26451,-35.374 2.6736,-51.789 56.81587,-134.4224 56.81587,-286.1159 0,-420.5383 -6.93811,-16.4151 -7.8844,-34.7468 -2.6736,-51.7891 4.51654,-14.7716 -3.79666,-30.4076 -18.56813,-34.9242 -0.62305,-0.1904 -1.25253,-0.3591 -1.88733,-0.5056 -17.3644,-4.0084 -32.76707,-13.9939 -43.51387,-28.21 -88.00533,-116.4152 -219.37559,-192.2619 -364.19679,-210.2691 -17.68493,-2.1989 -34.03387,-10.5453 -46.18746,-23.5792 -10.53427,-11.2972 -28.23214,-11.9157 -39.52934,-1.3816 -0.4764,0.4444 -0.9372,0.9052 -1.38146,1.3816 -12.1536,13.0339 -28.50267,21.3803 -46.1876,23.5792 -144.821067,18.0072 -276.19133,93.854 -364.19667,210.2691 -10.74693,14.2161 -26.14946,24.2016 -43.514,28.21 -15.0508,3.4742 -24.43533,18.4918 -20.96106,33.5425 0.14653,0.6348 0.3152,1.2643 0.50573,1.8873 5.2108,17.0423 4.2644,35.374 -2.6736,51.7891 -56.81587,134.4224 -56.81587,286.1159 0,420.5383 6.938,16.415 7.8844,34.7468 2.6736,51.789 -4.51667,14.7716 3.79667,30.4076 18.56813,34.9242 0.62307,0.1905 1.2524,0.3592 1.8872,0.5057 z"
           style="vector-effect:non-scaling-stroke;fill:none;stroke:#ff0000;stroke-width:1;stroke-dasharray:none;stroke-opacity:1;-inkscape-stroke:hairline"
           id="path76" />
      </g>
      <path
         d="m 164.86866,1744.2898 c 0,6.2622 -5.07653,11.3386 -11.33866,11.3386 -6.262,0 -11.33854,-5.0764 -11.33854,-11.3386 0,-6.2621 5.07654,-11.3386 11.33854,-11.3386 6.26213,0 11.33866,5.0765 11.33866,11.3386 z"
         style="vector-effect:non-scaling-stroke;fill:none;stroke:#ff0000;stroke-width:1;stroke-dasharray:none;stroke-opacity:1;-inkscape-stroke:hairline"
         id="path67" />
      <path
         d="m -299.044,1999.0372 c 5.4232,3.131 7.28133,10.0657 4.15027,15.4888 -3.13107,5.4232 -10.06574,7.2813 -15.4888,4.1502 -5.4232,-3.131 -7.28134,-10.0656 -4.15027,-15.4888 3.13107,-5.4232 10.0656,-7.2813 15.4888,-4.1502 z"
         style="vector-effect:non-scaling-stroke;fill:none;stroke:#ff0000;stroke-width:1;stroke-dasharray:none;stroke-opacity:1;-inkscape-stroke:hairline"
         id="path68" />
      <path
         d="m -310.38253,2528.171 c 5.42306,-3.131 12.35773,-1.2729 15.4888,4.1503 3.13106,5.4231 1.27293,12.3577 -4.15027,15.4888 -5.4232,3.1311 -12.35773,1.2729 -15.4888,-4.1503 -3.13107,-5.4232 -1.27293,-12.3577 4.15027,-15.4888 z"
         style="vector-effect:non-scaling-stroke;fill:none;stroke:#ff0000;stroke-width:1;stroke-dasharray:none;stroke-opacity:1;-inkscape-stroke:hairline"
         id="path69" />
      <path
         d="m 142.19146,2802.5574 c 0,-6.2621 5.0764,-11.3385 11.33854,-11.3385 6.26213,0 11.33866,5.0764 11.33866,11.3385 0,6.2622 -5.07653,11.3387 -11.33866,11.3387 -6.26214,0 -11.33854,-5.0765 -11.33854,-11.3387 z"
         style="vector-effect:non-scaling-stroke;fill:none;stroke:#ff0000;stroke-width:1;stroke-dasharray:none;stroke-opacity:1;-inkscape-stroke:hairline"
         id="path70" />
      <path
         d="m 606.10412,2547.8101 c -5.4232,-3.1311 -7.28134,-10.0657 -4.15027,-15.4888 3.13107,-5.4232 10.0656,-7.2813 15.48882,-4.1503 5.42318,3.1311 7.28133,10.0656 4.15025,15.4888 -3.13107,5.4232 -10.0656,7.2814 -15.4888,4.1503 z"
         style="vector-effect:non-scaling-stroke;fill:none;stroke:#ff0000;stroke-width:1;stroke-dasharray:none;stroke-opacity:1;-inkscape-stroke:hairline"
         id="path71" />
      <path
         d="m 617.44267,2018.6762 c -5.42309,3.1311 -12.35775,1.273 -15.48882,-4.1502 -3.13107,-5.4231 -1.27293,-12.3578 4.15027,-15.4888 5.4232,-3.1311 12.35773,-1.273 15.4888,4.1502 3.13108,5.4232 1.27293,12.3578 -4.15025,15.4888 z"
         style="vector-effect:non-scaling-stroke;fill:none;stroke:#ff0000;stroke-width:1;stroke-dasharray:none;stroke-opacity:1;-inkscape-stroke:hairline"
         id="path72" />
      <path
         d="m -187.16093,2414.7966 c 292.9168,-168.9542 292.72626,-507.1341 292.66333,-507.1704 0,-44.9264 -36.42,-81.3464 -81.3464,-81.3464 -9.297067,0 -18.52532,1.5938 -27.283853,4.712 0,0 -1.34e-4,0.037 -1.34e-4,0.037 -65.10188,22.9906 -124.767883,60.4392 -175.032683,110.704 -88.57093,88.5702 -137.34866,206.3312 -137.34866,331.589 0,29.0669 2.62666,57.7301 7.76773,85.7185 8.1124,44.1879 50.51,73.4329 94.698,65.3207 9.14413,-1.6788 17.8312,-4.916 25.88267,-9.5646 z"
         style="vector-effect:non-scaling-stroke;fill:none;stroke:#ff0000;stroke-width:1;stroke-dasharray:none;stroke-opacity:1;-inkscape-stroke:hairline"
         id="path73" />
      <path
         d="m 446.244,2497.5454 c -292.77707,-169.1964 -585.55413,0.059 -585.55413,0.1312 -38.90734,22.4632 -52.238,72.2139 -29.7748,111.1214 4.64853,8.0514 10.64293,15.2465 17.72266,21.2725 0,0 0.0323,-0.018 0.0323,-0.018 52.461333,44.8845 114.725867,77.8324 183.3888,96.2307 120.98946,32.4196 247.36239,15.7817 355.83879,-46.8471 25.17267,-14.5335 48.68241,-31.1399 70.35053,-49.5863 34.2116,-29.1194 38.33973,-80.4594 9.22027,-114.6712 -6.02587,-7.0797 -13.17294,-12.9842 -21.22439,-17.6328 z"
         style="vector-effect:non-scaling-stroke;fill:none;stroke:#ff0000;stroke-width:1;stroke-dasharray:none;stroke-opacity:1;-inkscape-stroke:hairline"
         id="path74" />
      <path
         d="m 201.20413,1907.6262 c -0.13987,338.1506 292.82787,507.0754 292.89066,507.0391 38.90746,22.4632 88.65813,9.1325 111.12133,-29.7748 4.64853,-8.0515 7.8824,-16.8403 9.56121,-25.9845 0,0 -0.0322,-0.019 -0.0322,-0.019 12.64067,-67.8751 10.042,-138.2718 -8.35613,-206.9347 -32.41853,-120.9897 -110.01373,-222.1131 -218.49013,-284.7419 -25.17266,-14.5334 -51.30906,-26.5902 -78.11826,-36.1322 -42.324,-15.0684 -88.84987,7.0265 -103.91827,49.3505 -3.11826,8.7585 -4.65826,17.9003 -4.65826,27.1973 z"
         style="vector-effect:non-scaling-stroke;fill:none;stroke:#ff0000;stroke-width:1;stroke-dasharray:none;stroke-opacity:1;-inkscape-stroke:hairline"
         id="path75" />
    </g>
    <path
       d="m 545.92049,1592.4866 c 0,3.131 -2.53826,5.6693 -5.66933,5.6693 -3.13107,0 -5.6692,-2.5383 -5.6692,-5.6693 0,-3.1311 2.53813,-5.6692 5.6692,-5.6692 3.13107,0 5.66933,2.5381 5.66933,5.6692 z"
       style="vector-effect:non-scaling-stroke;fill:none;stroke:#ff0000;stroke-width:1;stroke-dasharray:none;stroke-opacity:1;-inkscape-stroke:hairline"
       id="path59" />
    <path
       d="m 367.49889,1882.2054 c 2.7116,-1.5656 6.17891,-0.6366 7.74444,2.075 1.56554,2.7116 0.63648,6.1788 -2.0751,7.7444 -2.7116,1.5655 -6.1788,0.6364 -7.7444,-2.075 -1.56547,-2.7116 -0.63654,-6.179 2.07506,-7.7444 z"
       style="vector-effect:non-scaling-stroke;fill:none;stroke:#ff0000;stroke-width:1;stroke-dasharray:none;stroke-opacity:1;-inkscape-stroke:hairline"
       id="path60" />
    <path
       d="m 707.61342,1891.8635 c -2.71147,-1.5655 -3.64053,-5.0328 -2.07507,-7.7443 1.5656,-2.7116 5.0328,-3.6406 7.7444,-2.0752 2.7116,1.5656 3.64067,5.0328 2.07507,7.7444 -1.56547,2.7116 -5.0328,3.6407 -7.7444,2.0751 z"
       style="vector-effect:non-scaling-stroke;fill:none;stroke:#ff0000;stroke-width:1;stroke-dasharray:none;stroke-opacity:1;-inkscape-stroke:hairline"
       id="path61" />
  </g>
  <g
     id="g118"
     transform="translate(-0.2500325,-18.112368)"
     style="display:none">
    <g
       id="use57"
       style="vector-effect:non-scaling-stroke;fill:none;stroke:#ff0000;stroke-width:1;stroke-dasharray:none;stroke-opacity:1;-inkscape-stroke:hairline"
       transform="translate(386.81423,-484.57181)">
      <g
         id="use76"
         style="vector-effect:non-scaling-stroke;stroke:#ff0000;stroke-width:1;stroke-dasharray:none;stroke-opacity:1;-inkscape-stroke:hairline">
        <path
           d="m 648.33932,1333.1834 c 0.19053,0.623 0.3592,1.2524 0.50573,1.8872 3.47427,15.0508 -5.91038,30.0684 -20.9612,33.5427 -17.3644,4.0084 -32.76706,13.9939 -43.51386,28.2099 -88.00534,116.4152 -219.3756,192.2618 -364.1968,210.2692 -17.68493,2.1989 -34.03386,10.5452 -46.18746,23.5792 -0.44427,0.4764 -0.90507,0.9372 -1.3816,1.3814 -11.2972,10.5343 -28.99507,9.9158 -39.52933,-1.3814 -12.15347,-13.034 -28.50253,-21.3803 -46.187467,-23.5792 -144.821066,-18.0074 -276.191463,-93.854 -364.196803,-210.2692 -10.7468,-14.216 -26.14933,-24.2015 -43.51386,-28.2099 -0.6348,-0.1465 -1.26427,-0.3152 -1.8872,-0.5057 -14.7716,-4.5166 -23.0848,-20.1527 -18.56827,-34.9242 5.21093,-17.0422 4.26453,-35.374 -2.6736,-51.7892 -56.81573,-134.4224 -56.81573,-286.11571 0,-420.53811 6.93813,-16.41507 7.88453,-34.74693 2.6736,-51.7892 -0.1904,-0.62293 -0.35907,-1.2524 -0.5056,-1.88721 -3.47427,-15.05079 5.91027,-30.06825 20.96107,-33.54252 17.36453,-4.0084 32.76706,-13.99387 43.51386,-28.21 88.00534,-116.4152 219.375737,-192.26186 364.196803,-210.26906 17.684937,-2.19907 34.033997,-10.54533 46.187467,-23.5792 0.4444,-0.47655 0.9052,-0.93733 1.3816,-1.3816 11.2972,-10.53413 28.99506,-9.9156 39.52933,1.3816 12.1536,13.03387 28.50253,21.38013 46.18746,23.5792 144.8212,18.0072 276.19146,93.85386 364.1968,210.26906 10.7468,14.21613 26.14946,24.2016 43.51386,28.21 0.63482,0.14652 1.26427,0.3152 1.8872,0.5056 14.77162,4.51653 23.0848,20.15267 18.56827,34.92413 -5.21094,17.04227 -4.26454,35.37413 2.6736,51.7892 56.81573,134.4224 56.81573,286.11571 0,420.53831 -6.93814,16.415 -7.88454,34.7468 -2.6736,51.789 z"
           style="vector-effect:non-scaling-stroke;fill:none;stroke:#ff0000;stroke-width:1;stroke-dasharray:none;stroke-opacity:1;-inkscape-stroke:hairline"
           id="path84" />
      </g>
      <path
         d="m -326.84773,1071.1252 c 0,-265.30537 215.07266,-480.3779 480.37799,-480.3779 265.30546,0 480.37799,215.07253 480.37799,480.3779 0,265.3054 -215.07253,480.378 -480.37799,480.378 -265.30533,0 -480.37799,-215.0726 -480.37799,-480.378 z"
         style="vector-effect:non-scaling-stroke;fill:none;stroke:#ff0000;stroke-width:1;stroke-dasharray:none;stroke-opacity:1;-inkscape-stroke:hairline"
         id="path77" />
      <path
         d="m 164.86893,541.9913 c 0,6.26213 -5.07653,11.33867 -11.33867,11.33867 -6.26213,0 -11.33853,-5.07654 -11.33853,-11.33867 0,-6.26213 5.0764,-11.33853 11.33853,-11.33853 6.26214,0 11.33867,5.0764 11.33867,11.33853 z"
         style="vector-effect:non-scaling-stroke;fill:none;stroke:#ff0000;stroke-width:1;stroke-dasharray:none;stroke-opacity:1;-inkscape-stroke:hairline"
         id="path78" />
      <path
         d="m -299.04373,796.73876 c 5.4232,3.13107 7.28133,10.0656 4.15026,15.4888 -3.13106,5.4232 -10.06573,7.28133 -15.4888,4.15027 -5.4232,-3.13107 -7.28133,-10.06574 -4.15026,-15.48881 3.13106,-5.42319 10.0656,-7.28134 15.4888,-4.15026 z"
         style="vector-effect:non-scaling-stroke;fill:none;stroke:#ff0000;stroke-width:1;stroke-dasharray:none;stroke-opacity:1;-inkscape-stroke:hairline"
         id="path79" />
      <path
         d="m -310.38227,1325.8726 c 5.42307,-3.131 12.35774,-1.2729 15.4888,4.1502 3.13107,5.4232 1.27294,12.3577 -4.15026,15.4888 -5.4232,3.131 -12.35774,1.2729 -15.4888,-4.1502 -3.13107,-5.4232 -1.27294,-12.3577 4.15026,-15.4888 z"
         style="vector-effect:non-scaling-stroke;fill:none;stroke:#ff0000;stroke-width:1;stroke-dasharray:none;stroke-opacity:1;-inkscape-stroke:hairline"
         id="path80" />
      <path
         d="m 142.19173,1600.259 c 0,-6.2621 5.0764,-11.3385 11.33853,-11.3385 6.26214,0 11.33867,5.0764 11.33867,11.3385 0,6.2622 -5.07653,11.3386 -11.33867,11.3386 -6.26213,0 -11.33853,-5.0764 -11.33853,-11.3386 z"
         style="vector-effect:non-scaling-stroke;fill:none;stroke:#ff0000;stroke-width:1;stroke-dasharray:none;stroke-opacity:1;-inkscape-stroke:hairline"
         id="path81" />
      <path
         d="m 606.10438,1345.5116 c -5.42319,-3.1311 -7.28133,-10.0656 -4.15026,-15.4888 3.13107,-5.4231 10.0656,-7.2812 15.4888,-4.1502 5.4232,3.1311 7.28133,10.0656 4.15026,15.4888 -3.13106,5.4231 -10.0656,7.2812 -15.4888,4.1502 z"
         style="vector-effect:non-scaling-stroke;fill:none;stroke:#ff0000;stroke-width:1;stroke-dasharray:none;stroke-opacity:1;-inkscape-stroke:hairline"
         id="path82" />
      <path
         d="m 617.44292,816.37783 c -5.42307,3.13106 -12.35773,1.27293 -15.4888,-4.15027 -3.13107,-5.4232 -1.27293,-12.35773 4.15026,-15.4888 5.4232,-3.13108 12.35774,-1.27293 15.4888,4.15026 3.13107,5.42307 1.27294,12.35774 -4.15026,15.48881 z"
         style="vector-effect:non-scaling-stroke;fill:none;stroke:#ff0000;stroke-width:1;stroke-dasharray:none;stroke-opacity:1;-inkscape-stroke:hairline"
         id="path83" />
    </g>
    <g
       id="use65"
       style="vector-effect:non-scaling-stroke;fill:none;stroke:#ff0000;stroke-width:1;stroke-dasharray:none;stroke-opacity:1;-inkscape-stroke:hairline"
       transform="translate(386.81423,-484.57181)">
      <g
         id="use106"
         style="vector-effect:non-scaling-stroke;stroke:#ff0000;stroke-width:1;stroke-dasharray:none;stroke-opacity:1;-inkscape-stroke:hairline">
        <path
           d="M 310.65626,627.78596 C 261.02213,610.2285 208.22333,601.07677 154.01786,601.05968 99.8124,601.04235 47.007867,610.1605 -2.637413,627.68635"
           style="vector-effect:non-scaling-stroke;fill:none;stroke:#ff0000;stroke-width:1;stroke-dasharray:none;stroke-opacity:1;-inkscape-stroke:hairline"
           id="path110" />
        <path
           d="m -308.812,1147.6445 c 0.43853,2.6473 0.8996,5.2889 1.38267,7.9247 8.09826,44.1904 50.4868,73.4488 94.6772,65.3505 9.1448,-1.6759 17.8328,-4.9103 25.88586,-9.5563"
           style="vector-effect:non-scaling-stroke;fill:none;stroke:#ff0000;stroke-width:1;stroke-dasharray:none;stroke-opacity:1;-inkscape-stroke:hairline"
           id="path111" />
        <path
           d="m -186.86627,1211.3634 c 292.9704,-168.861 292.88734,-507.0409 292.82454,-507.07717 0.0143,-44.9264 -36.39427,-81.35813 -81.320537,-81.37227 -9.2972,-0.003 -18.525866,1.58787 -27.28544,4.70334 0,0 -1.73e-4,0.0371 -1.73e-4,0.0371 -8.057693,2.84267 -16.032253,5.90681 -23.915987,9.18921"
           style="vector-effect:non-scaling-stroke;fill:none;stroke:#ff0000;stroke-width:1;stroke-dasharray:none;stroke-opacity:1;-inkscape-stroke:hairline"
           id="path112" />
        <path
           d="m 453.74865,1430.5885 c 1.58481,-1.3128 3.16,-2.6352 4.72561,-3.9671 34.22093,-29.1085 38.36533,-80.4473 9.2568,-114.6681 -6.02374,-7.0817 -13.16881,-12.9887 -21.21881,-17.6397"
           style="vector-effect:non-scaling-stroke;fill:none;stroke:#ff0000;stroke-width:1;stroke-dasharray:none;stroke-opacity:1;-inkscape-stroke:hairline"
           id="path113" />
        <path
           d="m 446.51225,1294.3136 c -292.72332,-169.2894 -585.55398,-0.1275 -585.55412,-0.055 -38.91453,22.4508 -52.26093,72.1972 -29.81013,111.1117 4.64587,8.0531 10.638,15.25 17.71587,21.2781 0,0 0.0323,-0.018 0.0323,-0.018 1.3988,1.1978 2.80467,2.387 4.21747,3.5674"
           style="vector-effect:non-scaling-stroke;fill:none;stroke:#ff0000;stroke-width:1;stroke-dasharray:none;stroke-opacity:1;-inkscape-stroke:hairline"
           id="path114" />
        <path
           d="m 315.044,629.53676 c -1.592,-0.5868 -3.18641,-1.16453 -4.78321,-1.73346 -42.3192,-15.082 -88.852,6.99826 -103.934,49.31746 -3.12106,8.75759 -4.664,17.8988 -4.66693,27.19587"
           style="vector-effect:non-scaling-stroke;fill:none;stroke:#ff0000;stroke-width:1;stroke-dasharray:none;stroke-opacity:1;-inkscape-stroke:hairline"
           id="path115" />
        <path
           d="m 201.65986,704.31663 c -0.2472,338.15037 292.66666,507.16837 292.72947,507.13217 38.90039,22.4754 88.65519,9.1606 111.13079,-29.7395 4.65106,-8.0501 7.88788,-16.8379 9.56946,-25.9816 0,0 -0.0321,-0.019 -0.0321,-0.019 0.53333,-2.8584 1.03947,-5.7212 1.5188,-8.5881"
           style="vector-effect:non-scaling-stroke;fill:none;stroke:#ff0000;stroke-width:1;stroke-dasharray:none;stroke-opacity:1;-inkscape-stroke:hairline"
           id="path116" />
        <path
           d="m -307.49053,1155.3228 c 9.612,51.763 28.08586,102.064 55.17346,149.016 27.08787,46.9518 61.38667,88.1229 101.3872,122.3541"
           style="vector-effect:non-scaling-stroke;fill:none;stroke:#ff0000;stroke-width:1;stroke-dasharray:none;stroke-opacity:1;-inkscape-stroke:hairline"
           id="path117" />
        <path
           d="m 458.44319,1426.8852 c 40.02226,-34.2058 74.3472,-75.3551 101.46481,-122.2896 27.11772,-46.9348 45.62345,-97.2239 55.26825,-148.981"
           style="vector-effect:non-scaling-stroke;fill:none;stroke:#ff0000;stroke-width:1;stroke-dasharray:none;stroke-opacity:1;-inkscape-stroke:hairline"
           id="path118" />
      </g>
      <path
         d="m 159.2336,873.65916 c 0,3.13106 -2.53827,5.66933 -5.66934,5.66933 -3.13106,0 -5.66933,-2.53827 -5.66933,-5.66933 0,-3.13107 2.53827,-5.66934 5.66933,-5.66934 3.13107,0 5.66934,2.53827 5.66934,5.66934 z"
         style="vector-effect:non-scaling-stroke;fill:none;stroke:#ff0000;stroke-width:1;stroke-dasharray:none;stroke-opacity:1;-inkscape-stroke:hairline"
         id="path107" />
      <path
         d="m -19.188,1163.3778 c 2.7116,-1.5654 6.17888,-0.6364 7.744413,2.0751 1.56552,2.7116 0.636467,6.1789 -2.07508,7.7444 -2.7116,1.5656 -6.178933,0.6365 -7.7444,-2.0751 -1.5656,-2.7116 -0.636533,-6.1788 2.075067,-7.7444 z"
         style="vector-effect:non-scaling-stroke;fill:none;stroke:#ff0000;stroke-width:1;stroke-dasharray:none;stroke-opacity:1;-inkscape-stroke:hairline"
         id="path108" />
      <path
         d="m 320.92653,1173.0361 c -2.71161,-1.5655 -3.64067,-5.0328 -2.07507,-7.7444 1.56546,-2.7116 5.0328,-3.6407 7.7444,-2.0751 2.7116,1.5655 3.64066,5.0328 2.07506,7.7444 -1.56546,2.7116 -5.0328,3.6407 -7.74439,2.0751 z"
         style="vector-effect:non-scaling-stroke;fill:none;stroke:#ff0000;stroke-width:1;stroke-dasharray:none;stroke-opacity:1;-inkscape-stroke:hairline"
         id="path109" />
    </g>
  </g>
  <g
     id="g119"
     transform="translate(-1226.8781,-0.24842889)"
     style="display:none">
    <g
       id="use58"
       style="display:inline;vector-effect:non-scaling-stroke;fill:none;stroke:#ff0000;stroke-width:1;stroke-dasharray:none;stroke-opacity:1;-inkscape-stroke:hairline"
       transform="translate(386.81423,-484.57181)"
       sodipodi:insensitive="true">
      <g
         id="use84"
         style="vector-effect:non-scaling-stroke;stroke:#ff0000;stroke-width:1;stroke-dasharray:none;stroke-opacity:1;-inkscape-stroke:hairline">
        <path
           d="m 892.97733,1053.6393 c 0,-269.27147 218.28757,-487.55907 487.55907,-487.55907 269.2713,0 487.5591,218.2876 487.5591,487.55907 0,269.2713 -218.2878,487.5591 -487.5591,487.5591 -269.2715,0 -487.55907,-218.2878 -487.55907,-487.5591 z"
           style="vector-effect:non-scaling-stroke;fill:none;stroke:#ff0000;stroke-width:1;stroke-dasharray:none;stroke-opacity:1;-inkscape-stroke:hairline"
           id="path91" />
      </g>
      <g
         id="use85"
         style="vector-effect:non-scaling-stroke;stroke:#ff0000;stroke-width:1;stroke-dasharray:none;stroke-opacity:1;-inkscape-stroke:hairline">
        <path
           d="m 906.09771,1351.4956 c 17.27813,3.9885 32.60413,13.9242 43.29747,28.0696 88.06692,116.4966 219.52902,192.3964 364.45162,210.4162 17.5969,2.1882 33.8645,10.4928 45.9577,23.4619 10.6766,11.4499 28.6136,12.0768 40.0635,1.4003 0.4829,-0.4503 0.9499,-0.9174 1.4003,-1.4003 12.093,-12.9691 28.3606,-21.2737 45.9576,-23.4619 144.9225,-18.0198 276.3848,-93.9196 364.4517,-210.4162 10.6933,-14.1454 26.0193,-24.0811 43.2973,-28.0696 15.2543,-3.5212 24.7656,-18.7418 21.2444,-33.9959 -0.1485,-0.6433 -0.3194,-1.2813 -0.5125,-1.9127 -5.1849,-16.9574 -4.2432,-35.1981 2.6603,-51.5314 56.8556,-134.5166 56.8556,-286.31605 0,-420.83258 -6.9035,-16.33346 -7.8452,-34.574 -2.6603,-51.53146 4.5776,-14.9712 -3.848,-30.81854 -18.8191,-35.39613 -0.6314,-0.19308 -1.2693,-0.364 -1.9128,-0.51254 -17.278,-3.9884 -32.604,-13.92426 -43.2973,-28.06959 -88.0669,-116.49667 -219.5292,-192.3964 -364.4517,-210.41628 -17.597,-2.188 -33.8646,-10.49279 -45.9576,-23.46185 -10.6767,-11.44987 -28.6136,-12.07682 -40.0636,-1.40014 -0.4828,0.45027 -0.9499,0.9172 -1.4002,1.40014 -12.0932,12.96906 -28.3608,21.27385 -45.9577,23.46185 -144.9226,18.01988 -276.3847,93.91961 -364.45162,210.41628 -10.69334,14.14533 -26.01934,24.08119 -43.29747,28.06959 -15.25413,3.5212 -24.7656,18.74174 -21.24438,33.99587 0.14851,0.64333 0.31945,1.28133 0.51251,1.9128 5.18494,16.95746 4.24334,35.198 -2.66026,51.53146 -56.8556,134.51653 -56.8556,286.31598 0,420.83258 6.9036,16.3333 7.8452,34.574 2.66026,51.5314 -4.5776,14.9711 3.848,30.8184 18.8192,35.396 0.63134,0.1931 1.26934,0.3642 1.91267,0.5126 z"
           style="vector-effect:non-scaling-stroke;fill:none;stroke:#ff0000;stroke-width:1;stroke-dasharray:none;stroke-opacity:1;-inkscape-stroke:hairline"
           id="path92" />
      </g>
      <g
         id="use86"
         style="vector-effect:non-scaling-stroke;stroke:#ff0000;stroke-width:1;stroke-dasharray:none;stroke-opacity:1;-inkscape-stroke:hairline">
        <path
           d="m 1399.434,535.41597 -18.8976,10.91053 -18.8976,-10.91053 V 513.5949 l 18.8976,-10.91053 18.8976,10.91053 v 21.82107"
           style="vector-effect:non-scaling-stroke;fill:none;stroke:#ff0000;stroke-width:1;stroke-dasharray:none;stroke-opacity:1;-inkscape-stroke:hairline"
           id="path93" />
      </g>
      <g
         id="use87"
         style="vector-effect:non-scaling-stroke;stroke:#ff0000;stroke-width:1;stroke-dasharray:none;stroke-opacity:1;-inkscape-stroke:hairline">
        <path
           d="m 941.19067,778.16183 v 21.82106 l -18.89763,10.91054 -18.8976,-10.91054 v -21.82106 l 18.8976,-10.91054 18.89763,10.91054"
           style="vector-effect:non-scaling-stroke;fill:none;stroke:#ff0000;stroke-width:1;stroke-dasharray:none;stroke-opacity:1;-inkscape-stroke:hairline"
           id="path94" />
      </g>
      <g
         id="use88"
         style="vector-effect:non-scaling-stroke;stroke:#ff0000;stroke-width:1;stroke-dasharray:none;stroke-opacity:1;-inkscape-stroke:hairline">
        <path
           d="m 922.29304,1296.3852 18.89763,10.9105 v 21.8211 l -18.89763,10.9105 -18.8976,-10.9105 v -21.8211 l 18.8976,-10.9105"
           style="vector-effect:non-scaling-stroke;fill:none;stroke:#ff0000;stroke-width:1;stroke-dasharray:none;stroke-opacity:1;-inkscape-stroke:hairline"
           id="path95" />
      </g>
      <g
         id="use89"
         style="vector-effect:non-scaling-stroke;stroke:#ff0000;stroke-width:1;stroke-dasharray:none;stroke-opacity:1;-inkscape-stroke:hairline">
        <path
           d="m 1361.6388,1571.8625 18.8976,-10.9105 18.8976,10.9105 v 21.8212 l -18.8976,10.9105 -18.8976,-10.9105 v -21.8212"
           style="vector-effect:non-scaling-stroke;fill:none;stroke:#ff0000;stroke-width:1;stroke-dasharray:none;stroke-opacity:1;-inkscape-stroke:hairline"
           id="path96" />
      </g>
      <g
         id="use90"
         style="vector-effect:non-scaling-stroke;stroke:#ff0000;stroke-width:1;stroke-dasharray:none;stroke-opacity:1;-inkscape-stroke:hairline">
        <path
           d="m 1819.8821,1329.1168 v -21.8211 l 18.8976,-10.9105 18.8976,10.9105 v 21.8211 l -18.8976,10.9105 -18.8976,-10.9105"
           style="vector-effect:non-scaling-stroke;fill:none;stroke:#ff0000;stroke-width:1;stroke-dasharray:none;stroke-opacity:1;-inkscape-stroke:hairline"
           id="path97" />
      </g>
      <g
         id="use91"
         style="vector-effect:non-scaling-stroke;stroke:#ff0000;stroke-width:1;stroke-dasharray:none;stroke-opacity:1;-inkscape-stroke:hairline">
        <path
           d="m 1838.7797,810.89343 -18.8976,-10.91054 v -21.82106 l 18.8976,-10.91054 18.8976,10.91054 v 21.82106 l -18.8976,10.91054"
           style="vector-effect:non-scaling-stroke;fill:none;stroke:#ff0000;stroke-width:1;stroke-dasharray:none;stroke-opacity:1;-inkscape-stroke:hairline"
           id="path98" />
      </g>
    </g>
  </g>
</svg>
