M48
; DRILL file {KiCad 8.0.3} date 2024-10-18T17:58:28-0400
; FORMAT={-:-/ absolute / inch / decimal}
; #@! TF.CreationDate,2024-10-18T17:58:28-04:00
; #@! TF.GenerationSoftware,Kicad,Pcbnew,8.0.3
; #@! TF.FileFunction,Plated,1,2,PTH
FMAT,2
INCH
; #@! TA.AperFunction,Plated,PTH,ViaDrill
T1C0.0157
; #@! TA.AperFunction,Plated,PTH,ComponentDrill
T2C0.0276
; #@! TA.AperFunction,Plated,PTH,ComponentDrill
T3C0.0295
; #@! TA.AperFunction,Plated,PTH,ComponentDrill
T4C0.0315
; #@! TA.AperFunction,Plated,PTH,ComponentDrill
T5C0.0394
; #@! TA.AperFunction,Plated,PTH,ComponentDrill
T6C0.0551
%
G90
G05
T1
X1.7602Y-2.6427
X2.079Y-3.2528
X2.3654Y-3.7101
X2.3683Y-2.679
X2.4731Y-2.6437
X2.6218Y-3.2892
X2.6713Y-2.9687
X2.7893Y-3.1902
X2.8452Y-3.2892
X2.8836Y-3.2528
X2.8984Y-3.8635
X2.9821Y-3.1235
X3.0458Y-3.0773
X3.353Y-3.6308
X3.3965Y-2.8308
X4.5456Y-2.7138
X4.6413Y-2.8047
X4.7183Y-4.1324
X5.3457Y-3.4334
X5.8713Y-3.0799
X6.1653Y-3.6939
X6.5678Y-3.6939
X6.9339Y-4.2082
X7.7448Y-3.7239
X7.8791Y-4.1749
X7.9202Y-4.2224
X8.154Y-3.5461
T2
X2.0602Y-3.0122
X2.0602Y-3.0909
X2.139Y-3.0122
X2.139Y-3.0909
X2.2177Y-3.0122
X2.2177Y-3.0909
T3
X1.8343Y-2.7516
X1.8343Y-2.8516
X1.8343Y-2.9516
X1.8343Y-3.0516
X1.8343Y-3.1516
T4
X1.7142Y-2.5016
X1.7142Y-2.6016
X1.7142Y-2.7016
X1.7142Y-2.8016
X1.7142Y-2.9016
X1.7142Y-3.0016
X1.7142Y-3.1016
X1.7142Y-3.2016
X1.7142Y-3.3016
X1.7142Y-3.4016
X1.7142Y-3.5016
X1.7142Y-3.6016
X1.7142Y-3.7016
X1.7142Y-3.8016
X1.7142Y-3.9016
X1.7142Y-4.0016
X1.7142Y-4.1016
X1.7142Y-4.2016
X1.7142Y-4.3016
X1.7142Y-4.4016
X1.7142Y-4.5016
X1.7142Y-4.6016
X1.7142Y-4.7016
X1.7142Y-4.8016
X1.8142Y-4.3016
X1.9142Y-4.3016
X2.0142Y-4.3016
X2.1142Y-4.3016
X2.2142Y-2.6016
X2.2142Y-4.3016
X2.3142Y-2.5016
X2.3142Y-2.6016
X2.3142Y-2.7016
X2.3142Y-2.8016
X2.3142Y-2.9016
X2.3142Y-3.0016
X2.3142Y-3.1016
X2.3142Y-3.2016
X2.3142Y-3.3016
X2.3142Y-3.4016
X2.3142Y-3.5016
X2.3142Y-3.6016
X2.3142Y-3.7016
X2.3142Y-3.8016
X2.3142Y-3.9016
X2.3142Y-4.0016
X2.3142Y-4.1016
X2.3142Y-4.2016
X2.3142Y-4.3016
X2.3142Y-4.4016
X2.3142Y-4.5016
X2.3142Y-4.6016
X2.3142Y-4.7016
X2.3142Y-4.8016
X2.6071Y-2.9813
X2.6071Y-3.1781
X2.6071Y-3.5813
X2.6071Y-3.7781
X2.7321Y-2.7797
X2.7321Y-3.1797
X2.7321Y-3.3797
X2.7321Y-3.7797
X2.8571Y-2.7797
X2.8571Y-3.1797
X2.8571Y-3.3797
X2.8571Y-3.7797
X2.9821Y-2.7797
X2.9821Y-3.1797
X2.9821Y-3.3797
X2.9821Y-3.7797
X3.1071Y-2.9297
X3.1071Y-3.2297
X3.1071Y-3.3547
X3.1071Y-3.4797
X3.1071Y-3.7797
X3.1087Y-2.8047
X3.2321Y-2.9297
X3.2321Y-3.2297
X3.2321Y-3.4797
X3.2321Y-3.7797
X3.3039Y-3.3547
X3.3055Y-2.8047
X3.5071Y-2.9813
X3.5071Y-3.1781
X3.5071Y-3.5813
X3.5071Y-3.7781
X3.6321Y-2.7797
X3.6321Y-3.1797
X3.6321Y-3.3797
X3.6321Y-3.7797
X3.7571Y-2.7797
X3.7571Y-3.1797
X3.7571Y-3.3797
X3.7571Y-3.7797
X3.8821Y-2.7797
X3.8821Y-3.1797
X3.8821Y-3.3797
X3.8821Y-3.7797
X4.0071Y-2.9297
X4.0071Y-3.2297
X4.0071Y-3.4797
X4.0071Y-3.7797
X4.0087Y-3.3547
X4.0102Y-2.8047
X4.1321Y-2.9297
X4.1321Y-3.2297
X4.1321Y-3.4797
X4.1321Y-3.7797
X4.2055Y-3.3547
X4.2071Y-2.8047
X4.3392Y-2.9578
X4.3392Y-3.1547
X4.3392Y-3.5828
X4.3392Y-3.7797
X4.4642Y-2.7563
X4.4642Y-3.1563
X4.4642Y-3.3813
X4.4642Y-3.7813
X4.5892Y-2.7563
X4.5892Y-3.1563
X4.5892Y-3.3813
X4.5892Y-3.7813
X4.7142Y-2.7563
X4.7142Y-3.1563
X4.7142Y-3.3813
X4.7142Y-3.7813
X4.8392Y-2.9063
X4.8392Y-3.2063
X4.8392Y-3.4813
X4.8392Y-3.7813
X4.8407Y-2.7813
X4.8423Y-3.3563
X4.9642Y-2.9063
X4.9642Y-3.2063
X4.9642Y-3.4813
X4.9642Y-3.7813
X5.0376Y-2.7813
X5.0392Y-3.3563
X5.1392Y-2.9828
X5.1392Y-3.1797
X5.2642Y-2.7813
X5.2642Y-3.1813
X5.3142Y-3.5828
X5.3142Y-3.7797
X5.3892Y-2.7813
X5.3892Y-3.1813
X5.4392Y-3.3813
X5.4392Y-3.7813
X5.5142Y-2.7813
X5.5142Y-3.1813
X5.5642Y-3.3813
X5.5642Y-3.7813
X5.6392Y-2.9313
X5.6392Y-3.2313
X5.6423Y-2.8063
X5.6892Y-3.3813
X5.6892Y-3.7813
X5.7642Y-2.9313
X5.7642Y-3.2313
X5.8142Y-3.4813
X5.8142Y-3.7813
X5.8157Y-3.3563
X5.8392Y-2.8063
X5.9392Y-3.4813
X5.9392Y-3.7813
X6.0126Y-3.3563
X6.2071Y-2.9813
X6.2071Y-3.1781
X6.2071Y-3.5828
X6.2071Y-3.7797
X6.3321Y-2.7797
X6.3321Y-3.1797
X6.3321Y-3.3813
X6.3321Y-3.7813
X6.4571Y-2.7797
X6.4571Y-3.1797
X6.4571Y-3.3813
X6.4571Y-3.7813
X6.5821Y-2.7813
X6.5821Y-3.1813
X6.5821Y-3.3813
X6.5821Y-3.7813
X6.7071Y-2.9313
X6.7071Y-3.2313
X6.7071Y-3.4813
X6.7071Y-3.7813
X6.7087Y-3.3563
X6.7102Y-2.8063
X6.8321Y-2.9313
X6.8321Y-3.2313
X6.8321Y-3.4813
X6.8321Y-3.7813
X6.9055Y-3.3563
X6.9071Y-2.8063
X7.1071Y-2.9828
X7.1071Y-3.1797
X7.1071Y-3.5828
X7.1071Y-3.7797
X7.2321Y-2.7813
X7.2321Y-3.1813
X7.2321Y-3.3813
X7.2321Y-3.7813
X7.3571Y-2.7813
X7.3571Y-3.1813
X7.3571Y-3.3813
X7.3571Y-3.7813
X7.4821Y-2.7813
X7.4821Y-3.1813
X7.4821Y-3.3813
X7.4821Y-3.7813
X7.6071Y-2.9313
X7.6071Y-3.2313
X7.6071Y-3.4813
X7.6071Y-3.7813
X7.6087Y-3.3563
X7.6102Y-2.8063
X7.7321Y-2.9313
X7.7321Y-3.2313
X7.7321Y-3.4813
X7.7321Y-3.7813
X7.8055Y-3.3563
X7.8071Y-2.8063
X7.8821Y-2.9828
X7.8821Y-3.1797
X7.8821Y-3.5828
X7.8821Y-3.7797
X8.0071Y-2.7813
X8.0071Y-3.1813
X8.0071Y-3.3813
X8.0071Y-3.7813
X8.1321Y-2.7813
X8.1321Y-3.1813
X8.1321Y-3.3813
X8.1321Y-3.7813
X8.2571Y-2.7813
X8.2571Y-3.1813
X8.2571Y-3.3813
X8.2571Y-3.7813
X8.3821Y-2.9313
X8.3821Y-3.2313
X8.3821Y-3.4813
X8.3821Y-3.7813
X8.3852Y-2.8063
X8.3852Y-3.3563
X8.5071Y-2.9313
X8.5071Y-3.2313
X8.5071Y-3.4813
X8.5071Y-3.7813
X8.5821Y-2.8063
X8.5821Y-3.3563
X8.9571Y-2.9828
X8.9571Y-3.1797
X8.9571Y-3.5828
X8.9571Y-3.7797
X9.0821Y-2.7813
X9.0821Y-3.1813
X9.0821Y-3.3813
X9.0821Y-3.7813
X9.2071Y-2.7813
X9.2071Y-3.1813
X9.2071Y-3.3813
X9.2071Y-3.7813
X9.3321Y-2.7813
X9.3321Y-3.1813
X9.3321Y-3.3813
X9.3321Y-3.7813
X9.4555Y-2.9313
X9.4555Y-3.2313
X9.4555Y-3.4813
X9.4555Y-3.7813
X9.4602Y-2.8063
X9.4602Y-3.3563
X9.5805Y-2.9313
X9.5805Y-3.2313
X9.5805Y-3.4813
X9.5805Y-3.7813
X9.6571Y-2.8063
X9.6571Y-3.3563
T5
X2.4732Y-3.0906
X2.6244Y-2.6181
X2.7244Y-2.6181
X2.8244Y-2.6181
X2.9244Y-2.6181
X3.0244Y-2.6181
X3.1244Y-2.6181
X3.2244Y-2.6181
X3.3244Y-2.6181
X5.1504Y-3.8386
X6.0642Y-2.5016
X6.0642Y-2.6016
X6.0642Y-2.7016
X6.0642Y-2.8016
X6.0642Y-2.9016
X8.7571Y-2.9313
X8.7571Y-3.0313
X8.7571Y-3.1313
X8.7571Y-3.2313
T6
X2.6071Y-4.2982
X2.6071Y-4.5482
X2.6071Y-4.7982
X3.2461Y-4.2982
X3.2461Y-4.5482
X3.2461Y-4.7982
X3.5071Y-4.2982
X3.5071Y-4.5482
X3.5071Y-4.7982
X4.1461Y-4.2982
X4.1461Y-4.5482
X4.1461Y-4.7982
X4.4071Y-4.2982
X4.4071Y-4.5482
X4.4071Y-4.7982
X5.0461Y-4.2982
X5.0461Y-4.5482
X5.0461Y-4.7982
X5.3071Y-4.2982
X5.3071Y-4.5482
X5.3071Y-4.7982
X5.9461Y-4.2982
X5.9461Y-4.5482
X5.9461Y-4.7982
X6.2071Y-4.2982
X6.2071Y-4.5482
X6.2071Y-4.7982
X6.8461Y-4.2982
X6.8461Y-4.5482
X6.8461Y-4.7982
X7.1071Y-4.2982
X7.1071Y-4.5482
X7.1071Y-4.7982
X7.7461Y-4.2982
X7.7461Y-4.5482
X7.7461Y-4.7982
X8.0071Y-4.2945
X8.0071Y-4.5445
X8.0071Y-4.7945
X8.6461Y-4.2945
X8.6461Y-4.5445
X8.6461Y-4.7945
X8.9071Y-4.2982
X8.9071Y-4.5482
X8.9071Y-4.7982
X9.5461Y-4.2982
X9.5461Y-4.5482
X9.5461Y-4.7982
M30
